<svg width="546" height="329" viewBox="0 0 546 329" fill="none" xmlns="http://www.w3.org/2000/svg">
<rect width="546" height="329" fill="#1E1E1E"/>
<rect width="546" height="329" fill="white"/>
<g clip-path="url(#clip0_0_1)">
<path d="M447.656 178.657L433.108 180.787C428.267 181.496 423.402 179.653 421.396 176.35L405.814 150.684C404.495 148.511 401.882 146.904 398.731 146.327L390.613 144.842C385.915 143.982 382.621 140.893 382.621 137.348V96.1637C382.621 94.2392 381.639 92.3837 379.868 90.961L360.268 75.2171C342.597 71.1208 323.549 69.2934 303.745 70.248C227.63 73.9186 165.971 119.244 161.326 174.978C155.907 240.016 226.358 294 314.034 294C397.659 294 465.572 244.88 466.968 183.907L454.444 179.323C452.346 178.555 449.957 178.321 447.656 178.657Z" fill="#FFE6A1"/>
<path d="M355.483 268.32C354.554 268.32 353.639 268.277 352.714 268.264C346.917 273.425 338.501 276.693 329.103 276.693C315.262 276.693 303.526 269.631 299.225 259.81C280.291 253.864 263.214 245.018 248.862 233.944C246.691 234.464 244.436 234.826 242.051 234.826C228.939 234.826 218.31 226.391 218.31 215.986C218.31 212.352 219.668 208.989 221.914 206.111C221.753 205.883 221.581 205.662 221.422 205.433C204.953 204.547 191.931 193.693 191.931 180.4C191.931 172.565 196.453 165.572 203.536 160.965C202.865 156.35 202.483 151.665 202.483 146.906C202.483 123.027 211.205 100.777 226.208 82C183.424 103.526 155 141.411 155 184.586C155 251.641 223.5 306 308 306C362.408 306 410.148 283.444 437.275 249.493C413.612 261.399 385.575 268.32 355.483 268.32Z" fill="#FFD796"/>
<path d="M273.707 163.653C280.992 163.653 286.897 158.967 286.897 153.186C286.897 147.406 280.992 142.72 273.707 142.72C266.423 142.72 260.517 147.406 260.517 153.186C260.517 158.967 266.423 163.653 273.707 163.653Z" fill="#FFD796"/>
<path d="M413.517 232.733C420.802 232.733 426.707 228.047 426.707 222.266C426.707 216.486 420.802 211.8 413.517 211.8C406.233 211.8 400.328 216.486 400.328 222.266C400.328 228.047 406.233 232.733 413.517 232.733Z" fill="#FFD796"/>
<path d="M293.491 232.733C298.59 232.733 302.724 229.453 302.724 225.407C302.724 221.36 298.59 218.08 293.491 218.08C288.392 218.08 284.259 221.36 284.259 225.407C284.259 229.453 288.392 232.733 293.491 232.733Z" fill="#FFD796"/>
<path d="M364.716 165.746C369.815 165.746 373.948 162.466 373.948 158.419C373.948 154.373 369.815 151.093 364.716 151.093C359.617 151.093 355.483 154.373 355.483 158.419C355.483 162.466 359.617 165.746 364.716 165.746Z" fill="#FFD796"/>
<path d="M327.785 100.853C332.884 100.853 337.017 97.5726 337.017 93.5262C337.017 89.4799 332.884 86.1997 327.785 86.1997C322.686 86.1997 318.552 89.4799 318.552 93.5262C318.552 97.5726 322.686 100.853 327.785 100.853Z" fill="#FFD796"/>
<path d="M306.355 169.481L300.256 176.923C296.611 181.37 299.871 187.132 306.745 188.39L324.899 191.713C330.553 192.747 336.282 190.231 337.695 186.092L339.772 180.011C340.192 178.781 340.192 177.495 339.772 176.264L337.576 169.834C336.211 165.834 330.794 163.325 325.271 164.133L313.334 165.881C310.419 166.308 307.885 167.615 306.355 169.481Z" fill="#B97850"/>
<path d="M336.808 217.294L330.447 225.055C327.285 228.913 329.278 233.926 334.776 235.938L355.026 243.349C361.063 245.56 368.344 243.108 369.981 238.314L372.067 232.207L374.505 225.067C376.022 220.624 371.955 216.195 365.76 215.547L347.347 213.621C343.145 213.182 338.992 214.63 336.808 217.294Z" fill="#B97850"/>
<path d="M225.794 171.219L218.031 180.691C215.54 183.73 216.194 187.62 219.618 190.127L231.835 199.07C236.282 202.326 243.607 202.029 247.536 198.434L258.01 188.849C260.067 186.967 260.806 184.49 260.007 182.151L257.618 175.156C256.629 172.26 253.449 170.041 249.451 169.455L236.911 167.619C232.538 166.979 228.088 168.42 225.794 171.219Z" fill="#B97850"/>
<path d="M268.752 108.508L262.766 115.812C259.293 120.049 262.073 125.551 268.477 127.114L281.467 130.284C285.259 131.208 289.439 130.486 292.265 128.418L299.257 123.299C301.878 121.381 302.931 118.596 302.033 115.964L300.204 110.61C299.029 107.17 294.809 104.758 289.967 104.758H277.799C274.094 104.758 270.659 106.182 268.752 108.508Z" fill="#B97850"/>
<path d="M396.187 168.206L390.08 172.676C385.96 175.693 385.96 180.583 390.08 183.6L393.069 185.788C396.281 188.139 401.186 188.722 405.249 187.235L422.531 180.909C426.955 179.29 429.249 175.64 428.05 172.127L427.267 169.835C425.901 165.835 420.484 163.326 414.961 164.134L401.58 166.093C399.537 166.392 397.661 167.127 396.187 168.206Z" fill="#B97850"/>
<path d="M356.953 113.074L349.946 119.914C347.371 122.426 347.132 125.83 349.339 128.523L355.823 136.433C358.922 140.215 365.711 141.333 370.724 138.887L383.89 132.461C388.931 130.001 390.113 124.947 386.478 121.4L379.321 114.414C378.033 113.157 376.253 112.217 374.216 111.72L368.731 110.382C364.422 109.329 359.678 110.414 356.953 113.074Z" fill="#B97850"/>
<path d="M266.659 235.106L259.769 241.41C255.346 245.458 257.516 251.482 264.09 253.407L273.345 256.117C275.861 256.854 278.667 256.854 281.183 256.117L291.569 253.076C297.792 251.254 300.148 245.702 296.43 241.619L294.646 239.661C293.627 238.542 292.228 237.638 290.586 237.037L279.619 233.023C275.167 231.394 269.767 232.262 266.659 235.106Z" fill="#B97850"/>
<path d="M244.928 198.153L232.71 189.21C229.287 186.704 228.632 182.813 231.124 179.774L238.887 170.303C239.549 169.495 240.424 168.839 241.391 168.276L236.911 167.62C232.539 166.98 228.088 168.421 225.794 171.22L218.031 180.691C215.54 183.731 216.194 187.621 219.618 190.127L231.835 199.071C235.957 202.088 242.518 202.016 246.588 199.132C246.005 198.849 245.443 198.531 244.928 198.153Z" fill="#A5694B"/>
<path d="M292.035 127.534L279.045 124.365C272.642 122.802 269.86 117.3 273.334 113.063L279.32 105.759C279.624 105.387 280.026 105.081 280.403 104.758H277.799C274.093 104.758 270.658 106.182 268.751 108.509L262.765 115.812C259.291 120.049 262.071 125.551 268.476 127.114L281.466 130.284C285.258 131.208 289.438 130.486 292.264 128.418L293.247 127.698C292.843 127.637 292.433 127.631 292.035 127.534Z" fill="#A5694B"/>
<path d="M334.911 189.492L316.756 186.169C309.882 184.911 306.621 179.15 310.268 174.702L316.367 167.261C317.093 166.375 318.057 165.627 319.17 165.027L313.334 165.882C310.419 166.308 307.885 167.616 306.355 169.482L300.256 176.924C296.611 181.371 299.871 187.133 306.745 188.391L324.899 191.713C328.724 192.413 332.549 191.463 335.082 189.511C335.025 189.5 334.968 189.502 334.911 189.492Z" fill="#A5694B"/>
<path d="M365.679 135.765L359.195 127.855C356.988 125.162 357.227 121.759 359.801 119.246L366.809 112.407C367.576 111.657 368.529 111.07 369.562 110.583L368.73 110.381C364.421 109.33 359.677 110.415 356.952 113.074L349.945 119.914C347.371 122.426 347.131 125.829 349.338 128.522L355.822 136.433C358.912 140.202 365.663 141.319 370.67 138.906C368.664 138.295 366.888 137.24 365.679 135.765Z" fill="#A5694B"/>
<path d="M401.537 185.273C397.416 182.257 397.416 177.366 401.537 174.35L407.644 169.879C409.117 168.801 410.993 168.066 413.037 167.767L424.299 166.118C421.89 164.441 418.449 163.623 414.96 164.134L401.579 166.093C399.537 166.392 397.661 167.127 396.187 168.205L390.08 172.676C385.96 175.693 385.96 180.583 390.08 183.6L393.069 185.787C396.082 187.993 400.564 188.571 404.463 187.416L401.537 185.273Z" fill="#A5694B"/>
<path d="M347.847 235.29C342.35 233.278 340.355 228.265 343.518 224.407L349.879 216.647C350.713 215.63 351.893 214.858 353.193 214.233L347.348 213.622C343.145 213.182 338.992 214.63 336.808 217.294L330.448 225.055C327.285 228.913 329.279 233.926 334.776 235.938L355.026 243.349C359.062 244.827 363.617 244.189 366.706 242.193L347.847 235.29Z" fill="#A5694B"/>
<path d="M283.897 254.826L274.642 252.116C268.068 250.192 265.898 244.167 270.321 240.119L277.211 233.815C277.648 233.415 278.139 233.065 278.658 232.744C274.411 231.554 269.549 232.461 266.659 235.106L259.769 241.41C255.346 245.458 257.516 251.482 264.09 253.407L273.345 256.117C275.861 256.854 278.667 256.854 281.183 256.117L284.874 255.036C284.548 254.967 284.215 254.919 283.897 254.826Z" fill="#A5694B"/>
<path d="M203.233 228.341C202.443 228.341 201.636 228.209 200.879 227.934C198.272 226.979 197.216 224.66 198.52 222.752L203.796 215.028C205.1 213.119 208.26 212.354 210.874 213.3C213.481 214.255 214.538 216.574 213.234 218.482L207.958 226.206C207.033 227.56 205.171 228.341 203.233 228.341Z" fill="#C98850"/>
<path d="M298.205 278.551H292.929C290.015 278.551 287.653 276.824 287.653 274.689C287.653 272.555 290.015 270.827 292.929 270.827H298.205C301.119 270.827 303.481 272.554 303.481 274.689C303.481 276.824 301.119 278.551 298.205 278.551Z" fill="#925F4A"/>
<path d="M277.097 205.172C276.306 205.172 275.499 205.04 274.742 204.765C272.135 203.81 271.079 201.491 272.383 199.583L277.659 191.859C278.96 189.955 282.121 189.185 284.738 190.132C287.345 191.086 288.401 193.405 287.097 195.314L281.821 203.038C280.896 204.392 279.034 205.172 277.097 205.172Z" fill="#C98850"/>
<path d="M245.442 143.379C244.651 143.379 243.844 143.248 243.087 142.972L232.536 139.11C229.929 138.155 228.872 135.836 230.176 133.928C231.477 132.023 234.641 131.25 237.255 132.201L247.807 136.062C250.413 137.017 251.47 139.336 250.166 141.244C249.241 142.598 247.379 143.379 245.442 143.379Z" fill="#925F4A"/>
<path d="M308.757 89.3099H298.206C295.292 89.3099 292.93 87.5827 292.93 85.4477C292.93 83.3127 295.292 81.5854 298.206 81.5854H308.757C311.671 81.5854 314.033 83.3127 314.033 85.4477C314.033 87.5827 311.671 89.3099 308.757 89.3099Z" fill="#925F4A"/>
<path d="M329.866 147.241C327.928 147.241 326.066 146.461 325.141 145.107L319.865 137.382C318.561 135.474 319.618 133.154 322.225 132.201C324.837 131.25 328.003 132.024 329.304 133.928L334.58 141.652C335.884 143.56 334.827 145.88 332.22 146.834C331.462 147.109 330.657 147.241 329.866 147.241Z" fill="#C98850"/>
<path d="M185.077 166.152C184.368 165.896 183.724 165.517 183.211 165.025C181.448 163.326 181.901 160.903 184.223 159.613L193.619 154.391C195.939 153.1 199.246 153.435 201.013 155.132C202.776 156.831 202.322 159.254 200 160.544L190.604 165.766C188.957 166.681 186.815 166.779 185.077 166.152Z" fill="#925F4A"/>
<path d="M382.619 209.034C381.269 209.034 379.919 208.657 378.889 207.903L368.338 200.179C366.277 198.671 366.277 196.226 368.338 194.718C370.398 193.209 373.738 193.209 375.798 194.718L386.35 202.442C388.411 203.95 388.411 206.395 386.35 207.903C385.319 208.657 383.969 209.034 382.619 209.034Z" fill="#925F4A"/>
<path d="M393.171 247.655C391.821 247.655 390.471 247.278 389.441 246.524C387.38 245.015 387.38 242.571 389.441 241.063L394.717 237.2C396.778 235.692 400.117 235.692 402.178 237.2C404.238 238.709 404.238 241.153 402.178 242.662L396.901 246.524C395.871 247.278 394.521 247.655 393.171 247.655Z" fill="#C98850"/>
<path d="M403.723 85.4481V95.1921C403.723 97.9247 407.492 99.7929 410.958 98.7779L426.786 94.1434C428.788 93.5567 430.102 92.1366 430.102 90.5577V85.4481C430.102 83.3153 427.739 81.5859 424.826 81.5859H408.998C406.085 81.5859 403.723 83.3153 403.723 85.4481Z" fill="#FFE6A1"/>
<path d="M415.002 115.896L411.636 133.148C410.844 137.206 414.521 141.011 420.012 141.814L429.674 143.229C433.867 143.843 438.151 142.544 440.523 139.939L444.157 135.949C446.039 133.882 446.449 131.278 445.257 128.953L434.25 107.467C432.881 104.794 428.198 104.052 425.441 106.07L417.987 111.526C416.373 112.708 415.325 114.241 415.002 115.896Z" fill="#FFE6A1"/>
<path d="M441.452 136.368L431.79 134.954C426.298 134.15 422.622 130.345 423.414 126.287L426.78 109.036C427.081 107.497 428.061 106.092 429.487 104.948C428.055 104.895 426.585 105.232 425.441 106.069L417.987 111.525C416.373 112.707 415.325 114.24 415.003 115.895L411.636 133.147C410.844 137.205 414.522 141.009 420.012 141.813L429.675 143.227C433.867 143.841 438.152 142.542 440.524 139.938L443.703 136.447C442.954 136.458 442.206 136.479 441.452 136.368Z" fill="#FFD796"/>
<path d="M421.509 91.0534C418.044 92.0679 414.274 90.1998 414.274 87.4676V81.5859H408.998C406.084 81.5859 403.722 83.3153 403.722 85.4481V95.1921C403.722 97.9247 407.491 99.7929 410.957 98.7779L426.785 94.1434C428.788 93.5567 430.101 92.1371 430.101 90.5577V88.5377L421.509 91.0534Z" fill="#FFD796"/>
<path d="M443.284 154.229L440.165 158.795C439.423 159.882 439.423 161.161 440.165 162.249L441.588 164.333C443.008 166.411 446.593 167.108 449.233 165.82L457.739 161.669C459.207 160.952 460.088 159.747 460.088 158.456V154.294C460.088 151.659 456.56 149.797 453.144 150.631L446.334 152.292C445.007 152.616 443.91 153.312 443.284 154.229Z" fill="#FFD796"/>
</g>
<defs>
<clipPath id="clip0_0_1">
<rect width="306" height="224" fill="white" transform="translate(161 70)"/>
</clipPath>
</defs>
</svg>
